<mxfile host="app.diagrams.net" agent="Mozilla/5.0 (Windows NT 10.0; Win64; x64) AppleWebKit/537.36 (KHTML, like Gecko) Chrome/134.0.0.0 Safari/537.36 Edg/134.0.0.0" version="26.2.12">
  <diagram name="Page-1" id="7_Adi4_dngAHVN1TchjQ">
    <mxGraphModel dx="1886" dy="1670" grid="1" gridSize="10" guides="1" tooltips="1" connect="1" arrows="1" fold="1" page="1" pageScale="1" pageWidth="850" pageHeight="1100" math="0" shadow="0">
      <root>
        <mxCell id="0" />
        <mxCell id="1" parent="0" />
        <mxCell id="RZEPS5CueiKBCuBcdDsn-1" value="presentation" style="shape=folder;fontStyle=1;spacingTop=10;tabWidth=40;tabHeight=14;tabPosition=left;html=1;whiteSpace=wrap;" vertex="1" parent="1">
          <mxGeometry x="-215" y="-34" width="128" height="50" as="geometry" />
        </mxCell>
        <mxCell id="RZEPS5CueiKBCuBcdDsn-2" value="bussinesslogic" style="shape=folder;fontStyle=1;spacingTop=10;tabWidth=40;tabHeight=14;tabPosition=left;html=1;whiteSpace=wrap;" vertex="1" parent="1">
          <mxGeometry x="-215" y="58" width="136" height="50" as="geometry" />
        </mxCell>
        <mxCell id="RZEPS5CueiKBCuBcdDsn-4" value="datamodel" style="shape=folder;fontStyle=1;spacingTop=10;tabWidth=40;tabHeight=14;tabPosition=left;html=1;whiteSpace=wrap;" vertex="1" parent="1">
          <mxGeometry x="-19" y="66" width="136" height="50" as="geometry" />
        </mxCell>
        <mxCell id="RZEPS5CueiKBCuBcdDsn-5" style="edgeStyle=none;curved=1;rounded=0;orthogonalLoop=1;jettySize=auto;html=1;exitX=0;exitY=0;exitDx=128;exitDy=32;exitPerimeter=0;entryX=0;entryY=0;entryDx=0;entryDy=23;entryPerimeter=0;fontSize=12;startSize=8;endSize=8;dashed=1;" edge="1" parent="1" source="RZEPS5CueiKBCuBcdDsn-1" target="RZEPS5CueiKBCuBcdDsn-4">
          <mxGeometry relative="1" as="geometry" />
        </mxCell>
        <mxCell id="RZEPS5CueiKBCuBcdDsn-6" style="edgeStyle=none;curved=1;rounded=0;orthogonalLoop=1;jettySize=auto;html=1;exitX=0;exitY=0;exitDx=136;exitDy=32;exitPerimeter=0;entryX=0;entryY=0;entryDx=0;entryDy=32;entryPerimeter=0;fontSize=12;startSize=8;endSize=8;dashed=1;" edge="1" parent="1" source="RZEPS5CueiKBCuBcdDsn-2" target="RZEPS5CueiKBCuBcdDsn-4">
          <mxGeometry relative="1" as="geometry" />
        </mxCell>
        <mxCell id="RZEPS5CueiKBCuBcdDsn-8" style="edgeStyle=none;curved=1;rounded=0;orthogonalLoop=1;jettySize=auto;html=1;exitX=0.5;exitY=1;exitDx=0;exitDy=0;exitPerimeter=0;entryX=0.479;entryY=0.34;entryDx=0;entryDy=0;entryPerimeter=0;fontSize=12;startSize=8;endSize=8;dashed=1;" edge="1" parent="1" source="RZEPS5CueiKBCuBcdDsn-1" target="RZEPS5CueiKBCuBcdDsn-2">
          <mxGeometry relative="1" as="geometry" />
        </mxCell>
      </root>
    </mxGraphModel>
  </diagram>
</mxfile>
